# xmcd CD database file
#
# Track frame offsets:
#	150
#	8587
#	25990
#	41844
#	53853
#	64431
#	74861
#	88024
#	98836
#	109444
#	120203
#	130499
#	145598
#	154510
#	168377
#
# Disc length: 2487 seconds
#
# Revision: 0
# Processed by: cddbd v1.5.2PL0 Copyright (c) Steve Scherf et al.
# Submitted via: CDex 1.79
#
DISCID=d209b50f
DTITLE=Rangers - Rangers Band Best Of
DYEAR=2010
DGENRE=Country
TTITLE0=Plavci (Swimmer)
TTITLE1=Novodoby robinson (The Fields Of Home)
TTITLE2=Tvym snum zlym (Deep Blue Sea)
TTITLE3=Kingston Town (Jamaica Farewell)
TTITLE4=Dej Boze muj (Last Farewell)
TTITLE5=Ta zem je tva zem (This Land Is Your Land)
TTITLE6=Smutny psani (A Letter Edged In Black)
TTITLE7=Orchidej (To day)
TTITLE8=Zvednete kotvy (Sloop John B.)
TTITLE9=Neplac mala (Don't Cry Suzanne)
TTITLE10=Tece voda
TTITLE11=Znam svuj cil
TTITLE12=Oh Shenandoah
TTITLE13=Colorado
TTITLE14=Na konci milenia
EXTD=YEAR: 2010
EXTT0=
EXTT1=
EXTT2=
EXTT3=
EXTT4=
EXTT5=
EXTT6=
EXTT7=
EXTT8=
EXTT9=
EXTT10=
EXTT11=
EXTT12=
EXTT13=
EXTT14=
PLAYORDER=
